<mxfile host="app.diagrams.net" modified="2023-12-17T10:27:57.163Z" agent="Mozilla/5.0 (Macintosh; Intel Mac OS X 10_15_7) AppleWebKit/605.1.15 (KHTML, like Gecko) Version/16.6 Safari/605.1.15" etag="h5KHQUc8SaOMdlofxQng" version="22.1.11" type="github">
  <diagram id="C5RBs43oDa-KdzZeNtuy" name="Page-1">
    <mxGraphModel dx="1194" dy="797" grid="1" gridSize="10" guides="1" tooltips="1" connect="1" arrows="1" fold="1" page="1" pageScale="1" pageWidth="827" pageHeight="1169" math="0" shadow="0">
      <root>
        <mxCell id="WIyWlLk6GJQsqaUBKTNV-0" />
        <mxCell id="WIyWlLk6GJQsqaUBKTNV-1" parent="WIyWlLk6GJQsqaUBKTNV-0" />
        <mxCell id="ZD5niyjhzPdkFjPMz-g3-0" value="Start with Path of Target File" style="strokeWidth=2;html=1;shape=mxgraph.flowchart.terminator;whiteSpace=wrap;" vertex="1" parent="WIyWlLk6GJQsqaUBKTNV-1">
          <mxGeometry x="120" y="50" width="100" height="60" as="geometry" />
        </mxCell>
        <mxCell id="ZD5niyjhzPdkFjPMz-g3-2" value="" style="edgeStyle=orthogonalEdgeStyle;rounded=0;orthogonalLoop=1;jettySize=auto;html=1;" edge="1" parent="WIyWlLk6GJQsqaUBKTNV-1" source="ZD5niyjhzPdkFjPMz-g3-1" target="ZD5niyjhzPdkFjPMz-g3-0">
          <mxGeometry relative="1" as="geometry" />
        </mxCell>
        <mxCell id="ZD5niyjhzPdkFjPMz-g3-1" value="Path of Target File" style="shape=manualInput;whiteSpace=wrap;html=1;size=13;" vertex="1" parent="WIyWlLk6GJQsqaUBKTNV-1">
          <mxGeometry x="280" y="50" width="80" height="60" as="geometry" />
        </mxCell>
        <mxCell id="ZD5niyjhzPdkFjPMz-g3-3" value="extension &lt;br&gt;== .apk" style="strokeWidth=2;html=1;shape=mxgraph.flowchart.decision;whiteSpace=wrap;" vertex="1" parent="WIyWlLk6GJQsqaUBKTNV-1">
          <mxGeometry x="120" y="130" width="100" height="50" as="geometry" />
        </mxCell>
        <mxCell id="ZD5niyjhzPdkFjPMz-g3-4" value="extension &lt;br&gt;== .aab" style="strokeWidth=2;html=1;shape=mxgraph.flowchart.decision;whiteSpace=wrap;" vertex="1" parent="WIyWlLk6GJQsqaUBKTNV-1">
          <mxGeometry x="120" y="200" width="100" height="50" as="geometry" />
        </mxCell>
        <mxCell id="ZD5niyjhzPdkFjPMz-g3-5" value="extension &lt;br&gt;== .ipa" style="strokeWidth=2;html=1;shape=mxgraph.flowchart.decision;whiteSpace=wrap;" vertex="1" parent="WIyWlLk6GJQsqaUBKTNV-1">
          <mxGeometry x="120" y="270" width="100" height="50" as="geometry" />
        </mxCell>
        <mxCell id="ZD5niyjhzPdkFjPMz-g3-6" value="Create Apk Object" style="rounded=0;whiteSpace=wrap;html=1;" vertex="1" parent="WIyWlLk6GJQsqaUBKTNV-1">
          <mxGeometry x="275" y="132.5" width="90" height="45" as="geometry" />
        </mxCell>
        <mxCell id="ZD5niyjhzPdkFjPMz-g3-7" value="Create Apk Object" style="rounded=0;whiteSpace=wrap;html=1;" vertex="1" parent="WIyWlLk6GJQsqaUBKTNV-1">
          <mxGeometry x="275" y="202.5" width="90" height="45" as="geometry" />
        </mxCell>
        <mxCell id="ZD5niyjhzPdkFjPMz-g3-8" value="Create Apk Object" style="rounded=0;whiteSpace=wrap;html=1;" vertex="1" parent="WIyWlLk6GJQsqaUBKTNV-1">
          <mxGeometry x="275" y="272.5" width="90" height="45" as="geometry" />
        </mxCell>
        <mxCell id="ZD5niyjhzPdkFjPMz-g3-9" style="edgeStyle=orthogonalEdgeStyle;rounded=0;orthogonalLoop=1;jettySize=auto;html=1;exitX=0.5;exitY=1;exitDx=0;exitDy=0;exitPerimeter=0;entryX=0.5;entryY=0;entryDx=0;entryDy=0;entryPerimeter=0;" edge="1" parent="WIyWlLk6GJQsqaUBKTNV-1" source="ZD5niyjhzPdkFjPMz-g3-3" target="ZD5niyjhzPdkFjPMz-g3-4">
          <mxGeometry relative="1" as="geometry" />
        </mxCell>
      </root>
    </mxGraphModel>
  </diagram>
</mxfile>
